<svg width="56" height="56" viewBox="0 0 56 56" fill="none" xmlns="http://www.w3.org/2000/svg">
<circle cx="28" cy="28" r="28" fill="#F0F2F5"/>
<path d="M20.9993 25.0833C20.9993 21.5395 23.8722 18.6667 27.416 18.6667C30.5552 18.6667 33.17 20.922 33.7242 23.9011C33.8019 24.3189 34.1006 24.6613 34.5039 24.7951C36.8265 25.5654 38.4994 27.7555 38.4994 30.3333C38.4994 33.555 35.8877 36.1667 32.666 36.1667C32.0217 36.1667 31.4994 36.689 31.4994 37.3333C31.4994 37.9777 32.0217 38.5 32.666 38.5C37.1763 38.5 40.8327 34.8437 40.8327 30.3333C40.8327 26.9588 38.7866 24.0648 35.87 22.8195C34.872 19.0843 31.4664 16.3333 27.416 16.3333C22.5835 16.3333 18.666 20.2508 18.666 25.0833C18.666 25.2003 18.6683 25.3168 18.6729 25.4328C16.5782 26.6413 15.166 28.9047 15.166 31.5C15.166 35.366 18.3 38.5 22.166 38.5C22.8103 38.5 23.3327 37.9777 23.3327 37.3333C23.3327 36.689 22.8103 36.1667 22.166 36.1667C19.5887 36.1667 17.4993 34.0773 17.4993 31.5C17.4993 29.5664 18.6756 27.9049 20.3561 27.197C20.8424 26.9921 21.1307 26.4863 21.0591 25.9635C21.0197 25.6763 20.9993 25.3825 20.9993 25.0833Z" fill="#475367"/>
<path d="M27.2243 30.628C27.6663 30.2351 28.3324 30.2351 28.7744 30.628L30.5244 32.1836C31.006 32.6117 31.0494 33.3491 30.6213 33.8307C30.2468 34.252 29.6356 34.3379 29.166 34.0662V39.6667C29.166 40.311 28.6437 40.8333 27.9993 40.8333C27.355 40.8333 26.8327 40.311 26.8327 39.6667V34.0662C26.3631 34.3379 25.7519 34.252 25.3774 33.8307C24.9493 33.3491 24.9927 32.6117 25.4743 32.1836L27.2243 30.628Z" fill="#475367"/>
</svg>
