<svg width="72" height="24" viewBox="0 0 72 24" fill="none" xmlns="http://www.w3.org/2000/svg">
<g clip-path="url(#clip0_214_4184)">
<path d="M16.0732 23.2667V13.6015H4.15714V23.2667H0.0527344V0.0636172H4.15714V9.49712H16.0732V0.0636172H20.1776V23.2667H16.0732ZM23.4878 23.2667V0.0636172H27.5922V23.2667H23.4878ZM43.6998 16.6798V6.61742C43.6998 6.61742 43.8322 4.13492 43.2694 4.13492C42.806 4.13492 42.475 5.22722 41.5482 7.61039L35.2924 23.2667H30.89L37.1128 7.61039C38.9664 2.57922 40.5884 0.0305176 43.8652 0.0305176C46.1822 0.0305176 47.8042 2.38062 47.8042 6.61742V16.6798C47.8042 16.6798 47.6386 19.1623 48.2014 19.1623C48.5986 19.1623 48.8964 18.3348 49.5584 16.6467H49.5254L53.1332 7.61039C54.9868 2.57922 56.6088 0.0305176 59.8856 0.0305176C62.2026 0.0305176 63.8246 2.38062 63.8246 6.61742V23.2667H59.7202V6.61742C59.7202 6.61742 59.8526 4.13492 59.2898 4.13492C58.8264 4.13492 58.4954 5.22722 57.5686 7.61039L54.3248 15.753C52.5044 20.7511 50.8494 23.2667 47.6056 23.2667C45.2886 23.2667 43.6998 20.8835 43.6998 16.6798ZM67.1256 21.2476C67.1256 18.5334 71.2302 18.5334 71.2302 21.2476C71.2302 23.9287 67.1256 23.9619 67.1256 21.2476Z" fill="#FFF3E3"/>
</g>
<defs>
<clipPath id="clip0_214_4184">
<rect width="71.2667" height="24" fill="white"/>
</clipPath>
</defs>
</svg>
