<svg width="30" height="30" viewBox="0 0 30 30" fill="none" xmlns="http://www.w3.org/2000/svg">
<rect width="30" height="30" rx="15" fill="#FFF3E3"/>
<path d="M9.5625 15.5C9.5625 12.701 9.5625 11.3016 10.432 10.432C11.3016 9.5625 12.701 9.5625 15.5 9.5625C18.2989 9.5625 19.6984 9.5625 20.568 10.432C21.4375 11.3016 21.4375 12.701 21.4375 15.5C21.4375 18.2989 21.4375 19.6984 20.568 20.568C19.6984 21.4375 18.2989 21.4375 15.5 21.4375C12.701 21.4375 11.3016 21.4375 10.432 20.568C9.5625 19.6984 9.5625 18.2989 9.5625 15.5Z" stroke="#68191E" stroke-width="1.5" stroke-linejoin="round"/>
<path d="M18.3125 15.5C18.3125 17.0533 17.0533 18.3125 15.5 18.3125C13.9467 18.3125 12.6875 17.0533 12.6875 15.5C12.6875 13.9467 13.9467 12.6875 15.5 12.6875C17.0533 12.6875 18.3125 13.9467 18.3125 15.5Z" stroke="#68191E" stroke-width="1.5"/>
<path d="M18.9421 12.0625H18.9365" stroke="#68191E" stroke-width="2" stroke-linecap="round" stroke-linejoin="round"/>
</svg>
