<svg width="1349" height="150" viewBox="0 0 1349 150" fill="none" xmlns="http://www.w3.org/2000/svg">
<g opacity="0.7">
<path d="M102.098 147.581V86.6316H26.9552V147.581H1.07275V1.26122H26.9552V60.7491H102.098V1.26122H127.98V147.581H102.098ZM180.164 147.581V1.26122H206.047V147.581H180.164ZM338.931 106.043V42.5897C338.931 42.5897 339.766 26.935 336.218 26.935C333.295 26.935 331.207 33.823 325.363 48.8515L285.913 147.581H258.152L297.393 48.8515C309.082 17.1246 319.31 1.05249 339.975 1.05249C354.585 1.05249 364.813 15.8722 364.813 42.5897V106.043C364.813 106.043 363.769 121.698 367.318 121.698C369.823 121.698 371.701 116.48 375.876 105.835H375.668L398.419 48.8515C410.107 17.1246 420.335 1.05249 441 1.05249C455.61 1.05249 465.838 15.8722 465.838 42.5897V147.581H439.956V42.5897C439.956 42.5897 440.791 26.935 437.243 26.935C434.32 26.935 432.233 33.823 426.388 48.8515L405.933 100.199C394.453 131.717 384.017 147.581 363.561 147.581C348.95 147.581 338.931 132.552 338.931 106.043ZM599.786 81.8307C606.186 85.4488 611.127 89.9017 614.606 95.1895C618.224 100.338 620.032 105.904 620.032 111.888C620.032 117.036 618.78 121.977 616.275 126.708C613.771 131.3 610.153 135.335 605.422 138.814C595.68 145.772 584.339 149.25 571.398 149.25C564.998 149.25 558.875 148.346 553.031 146.537C547.185 144.728 541.968 142.154 537.375 138.814C529.444 132.97 524.643 125.803 522.973 117.315L531.948 112.305C532.366 119.959 536.123 126.22 543.22 131.091C546.838 133.874 551.082 136.031 555.952 137.562C560.823 138.953 565.972 139.649 571.398 139.649C582.531 139.649 591.923 136.796 599.577 131.091C606.952 125.664 610.639 119.263 610.639 111.888C610.639 107.574 609.248 103.539 606.464 99.7815C603.821 96.0244 600.064 92.8239 595.194 90.1799C590.602 87.8144 582.392 85.9358 570.564 84.5443C569.59 84.4052 566.041 83.8485 559.918 82.8745C553.934 81.9004 548.786 80.3697 544.472 78.2824C537.653 74.9427 532.297 70.5595 528.4 65.1325C524.504 59.5663 522.555 53.5827 522.555 47.1817C522.555 42.0331 523.808 37.2322 526.312 32.7794C528.957 28.1874 532.644 24.1519 537.375 20.6731C541.968 17.3334 547.185 14.7591 553.031 12.95C558.875 11.1411 564.998 10.2366 571.398 10.2366C584.339 10.2366 595.68 13.7154 605.422 20.6731C613.493 26.7957 618.224 33.8926 619.615 41.9634L610.639 46.9729C610.5 43.4941 609.457 40.1545 607.508 36.954C605.7 33.7534 603.056 30.8312 599.577 28.1874C595.819 25.4043 591.506 23.317 586.635 21.9255C581.765 20.3947 576.686 19.6294 571.398 19.6294C566.111 19.6294 560.962 20.3947 555.952 21.9255C551.082 23.317 546.838 25.4043 543.22 28.1874C539.602 30.8312 536.818 33.823 534.871 37.1627C532.922 40.3632 531.948 43.7029 531.948 47.1817C531.948 51.4954 533.549 55.8091 536.75 60.123C539.95 64.2976 543.916 67.5676 548.647 69.9332C551.569 71.3247 554.77 72.3684 558.248 73.0642C561.866 73.6208 566.458 74.2469 572.025 74.9427C572.999 75.0818 575.434 75.4297 579.33 75.9863C583.227 76.543 586.984 77.3084 590.602 78.2824C594.219 79.2564 597.281 80.4393 599.786 81.8307ZM696.258 147.581H686.864L686.656 11.9064H735.081C743.013 11.9064 750.318 13.6458 756.998 17.1246C763.817 20.6035 769.173 25.2651 773.07 31.1096C777.105 36.954 779.123 43.355 779.123 50.3126C779.123 57.1312 777.105 63.5322 773.07 69.5157C769.173 75.3602 763.817 80.0218 756.998 83.5006C750.318 86.9795 743.013 88.7189 735.081 88.7189H696.258V147.581ZM696.049 21.508L696.258 78.9085H735.081C741.343 78.9085 747.118 77.6562 752.406 75.1515C757.693 72.5075 761.868 69.0287 764.93 64.715C768.13 60.2621 769.731 55.4613 769.731 50.3126C769.731 45.0249 768.13 40.224 764.93 35.9103C761.868 31.4574 757.693 27.9786 752.406 25.4738C747.118 22.8299 741.343 21.508 735.081 21.508H696.049ZM854 147.581H844.608V11.9064H854V147.581ZM1007.99 147.581L951.631 79.1173H968.33C978.628 79.1173 986.977 77.7954 993.377 75.1515C998.108 72.925 1002.21 69.5853 1005.69 65.1325C1009.17 60.5404 1010.91 55.5309 1010.91 50.1039C1010.91 45.2335 1009.45 40.6415 1006.53 36.3278C1003.61 31.8748 999.431 28.2569 994.004 25.4738C988.577 22.6908 982.315 21.2992 975.218 21.2992H937.229V147.581H927.837V11.9064H975.218C981.619 11.9064 987.602 12.95 993.169 15.0373C998.735 16.9855 1003.61 19.8382 1007.78 23.5953C1011.82 27.2132 1014.88 31.3182 1016.96 35.9103C1019.19 40.5024 1020.3 45.2335 1020.3 50.1039C1020.3 57.7573 1018.01 64.6453 1013.42 70.7681C1008.82 76.7517 1003.4 81.0655 997.135 83.7094C992.821 85.6576 988.577 86.9099 984.403 87.4665C980.367 87.884 976.053 88.0926 971.46 88.0926L1020.51 147.581H1007.99ZM1176.05 147.581H1088.17V11.9064H1176.05V21.508H1097.57V74.9427H1158.73V84.5443H1097.57V137.77H1176.05V147.581ZM1308.76 142.362C1300.55 145.841 1291.65 147.581 1282.04 147.581H1243V11.9064H1282.04C1291.65 11.9064 1300.55 13.7154 1308.76 17.3334C1316.96 20.8122 1324.06 25.8217 1330.05 32.362C1335.75 38.6239 1340.14 45.7902 1343.2 53.8611C1346.26 61.9319 1347.79 70.4898 1347.79 79.5348C1347.79 88.5798 1346.26 97.1376 1343.2 105.208C1340.14 113.279 1335.75 120.515 1330.05 126.917C1324.06 133.596 1316.96 138.744 1308.76 142.362ZM1252.4 21.508V138.187H1282.04C1298.88 138.187 1312.58 132.273 1323.16 120.446C1328.03 115.158 1331.72 109.035 1334.23 102.078C1336.86 94.9808 1338.19 87.4665 1338.19 79.5348C1338.19 71.7422 1336.86 64.3671 1334.23 57.4094C1331.72 50.3126 1328.03 44.1204 1323.16 38.8325C1312.45 27.2829 1298.75 21.508 1282.04 21.508H1252.4Z" fill="#FFF3E3"/>
</g>
</svg>
