<svg width="30" height="30" viewBox="0 0 30 30" fill="none" xmlns="http://www.w3.org/2000/svg">
<rect width="30" height="30" rx="15" fill="#FFF3E3"/>
<path d="M9.5625 15.5C9.5625 12.701 9.5625 11.3016 10.432 10.432C11.3016 9.5625 12.701 9.5625 15.5 9.5625C18.2989 9.5625 19.6984 9.5625 20.568 10.432C21.4375 11.3016 21.4375 12.701 21.4375 15.5C21.4375 18.2989 21.4375 19.6984 20.568 20.568C19.6984 21.4375 18.2989 21.4375 15.5 21.4375C12.701 21.4375 11.3016 21.4375 10.432 20.568C9.5625 19.6984 9.5625 18.2989 9.5625 15.5Z" stroke="#68191E" stroke-width="1.5" stroke-linejoin="round"/>
<path d="M14.5849 14.8798C14.0724 14.8074 12.9042 14.9272 12.3313 15.9865C11.7585 17.0457 12.3358 18.1481 12.6961 18.5669C13.0519 18.9587 14.1827 19.7007 15.3821 18.9763C15.6794 18.7967 16.0498 18.6628 16.47 17.2597L16.4211 11.7385C16.3401 12.3465 17.0116 13.7725 18.9237 13.9412" stroke="#68191E" stroke-width="1.5" stroke-linecap="round" stroke-linejoin="round"/>
</svg>
