<svg width="30" height="30" viewBox="0 0 30 30" fill="none" xmlns="http://www.w3.org/2000/svg">
<rect width="30" height="30" rx="15" fill="#FFF3E3"/>
<path d="M15.5 21.75C18.9517 21.75 21.75 18.9517 21.75 15.5C21.75 12.0482 18.9517 9.25 15.5 9.25C12.0482 9.25 9.25 12.0482 9.25 15.5C9.25 16.3618 9.42442 17.1829 9.73989 17.9298C9.91424 18.3426 10.0014 18.549 10.0122 18.705C10.023 18.861 9.97709 19.0326 9.88526 19.3758L9.25 21.75L11.6242 21.1148C11.9674 21.0229 12.139 20.977 12.295 20.9878C12.451 20.9986 12.6574 21.0857 13.0702 21.2601C13.8172 21.5756 14.6382 21.75 15.5 21.75Z" stroke="#68191E" stroke-width="1.5" stroke-linejoin="round"/>
<path d="M13.3676 15.7358L13.9119 15.0597C14.1414 14.7748 14.4249 14.5096 14.4472 14.1302C14.4528 14.0343 14.3854 13.6041 14.2505 12.7437C14.1975 12.4055 13.8818 12.375 13.6083 12.375C13.252 12.375 13.0738 12.375 12.8968 12.4558C12.6732 12.558 12.4436 12.8452 12.3932 13.0858C12.3534 13.2762 12.383 13.4074 12.4422 13.6698C12.6939 14.7842 13.2843 15.8849 14.1997 16.8003C15.1151 17.7157 16.2157 18.3061 17.3302 18.5577C17.5926 18.617 17.7238 18.6466 17.9142 18.6067C18.1548 18.5564 18.442 18.3268 18.5442 18.1031C18.625 17.9262 18.625 17.7481 18.625 17.3917C18.625 17.1182 18.5945 16.8025 18.2563 16.7495C17.3959 16.6146 16.9657 16.5472 16.8698 16.5528C16.4904 16.5751 16.2252 16.8586 15.9403 17.0881L15.2642 17.6324" stroke="#68191E" stroke-width="1.5"/>
</svg>
