<svg width="1176" height="497" viewBox="0 0 1176 497" fill="none" xmlns="http://www.w3.org/2000/svg">
<path d="M294.57 355.554V210.576H115.83V355.554H54.2637V7.50781H115.83V149.01H294.57V7.50781H356.136V355.554H294.57ZM405.79 355.554V7.50781H467.356V355.554H405.79Z" fill="#1E1E1E"/>
<path d="M708.969 256.751V105.815C708.969 105.815 710.955 68.5772 702.515 68.5772C695.564 68.5772 690.599 84.9617 676.697 120.71L582.858 355.554H516.824L610.166 120.71C637.97 45.2417 662.298 7.01123 711.452 7.01123C746.207 7.01123 770.535 42.2627 770.535 105.815V256.751C770.535 256.751 768.053 293.988 776.493 293.988C782.451 293.988 786.92 281.576 796.85 256.254H796.353L850.472 120.71C878.276 45.2417 902.604 7.01123 951.758 7.01123C986.513 7.01123 1010.84 42.2627 1010.84 105.815V355.554H949.275V105.815C949.275 105.815 951.261 68.5772 942.821 68.5772C935.87 68.5772 930.905 84.9617 917.003 120.71L868.346 242.849C841.038 317.82 816.213 355.554 767.556 355.554C732.801 355.554 708.969 319.806 708.969 256.751ZM1060.36 325.268C1060.36 284.555 1121.92 284.555 1121.92 325.268C1121.92 365.484 1060.36 365.981 1060.36 325.268Z" fill="#68191E"/>
<path d="M100.837 495.237V463.02H61.1168V495.237H47.4355V417.894H61.1168V449.339H100.837V417.894H114.518V495.237H100.837ZM207.199 495.237V417.894H220.88V495.237H207.199ZM356.219 473.281V439.74C356.219 439.74 356.66 431.465 354.785 431.465C353.24 431.465 352.137 435.106 349.047 443.05L328.194 495.237H313.52L334.263 443.05C340.441 426.279 345.848 417.783 356.771 417.783C364.494 417.783 369.9 425.617 369.9 439.74V473.281C369.9 473.281 369.349 481.556 371.224 481.556C372.548 481.556 373.541 478.798 375.748 473.171H375.638L387.664 443.05C393.843 426.279 399.249 417.783 410.172 417.783C417.895 417.783 423.302 425.617 423.302 439.74V495.237H409.62V439.74C409.62 439.74 410.062 431.465 408.186 431.465C406.641 431.465 405.538 435.106 402.449 443.05L391.636 470.192C385.568 486.852 380.051 495.237 369.238 495.237C361.515 495.237 356.219 487.293 356.219 473.281ZM559.202 460.482C562.586 462.395 565.197 464.749 567.036 467.544C568.948 470.265 569.905 473.207 569.905 476.37C569.905 479.092 569.243 481.703 567.919 484.204C566.595 486.631 564.682 488.764 562.181 490.603C557.032 494.281 551.037 496.12 544.197 496.12C540.813 496.12 537.577 495.642 534.487 494.686C531.398 493.729 528.64 492.369 526.212 490.603C522.02 487.514 519.482 483.726 518.599 479.239L523.344 476.591C523.564 480.637 525.55 483.947 529.302 486.521C531.214 487.992 533.458 489.132 536.032 489.941C538.607 490.677 541.328 491.045 544.197 491.045C550.081 491.045 555.046 489.537 559.092 486.521C562.99 483.652 564.939 480.269 564.939 476.37C564.939 474.09 564.204 471.957 562.733 469.971C561.335 467.985 559.349 466.293 556.775 464.896C554.347 463.645 550.008 462.652 543.755 461.917C543.241 461.843 541.365 461.549 538.128 461.034C534.966 460.519 532.244 459.71 529.964 458.607C526.36 456.841 523.528 454.524 521.468 451.656C519.409 448.713 518.379 445.551 518.379 442.167C518.379 439.445 519.041 436.908 520.365 434.554C521.762 432.127 523.712 429.994 526.212 428.155C528.64 426.389 531.398 425.029 534.487 424.072C537.577 423.116 540.813 422.638 544.197 422.638C551.037 422.638 557.032 424.477 562.181 428.155C566.447 431.391 568.948 435.142 569.684 439.409L564.939 442.057C564.866 440.218 564.314 438.452 563.285 436.761C562.328 435.069 560.931 433.524 559.092 432.127C557.106 430.656 554.826 429.552 552.251 428.817C549.677 428.008 546.992 427.603 544.197 427.603C541.402 427.603 538.68 428.008 536.032 428.817C533.458 429.552 531.214 430.656 529.302 432.127C527.389 433.524 525.918 435.106 524.888 436.871C523.859 438.563 523.344 440.328 523.344 442.167C523.344 444.447 524.19 446.727 525.881 449.008C527.573 451.214 529.67 452.943 532.17 454.193C533.715 454.929 535.407 455.481 537.246 455.848C539.158 456.143 541.586 456.474 544.528 456.841C545.043 456.915 546.33 457.099 548.389 457.393C550.449 457.687 552.435 458.092 554.347 458.607C556.26 459.122 557.878 459.747 559.202 460.482ZM675.294 495.237H670.329L670.218 423.521H695.816C700.008 423.521 703.87 424.44 707.401 426.279C711.005 428.118 713.837 430.582 715.896 433.671C718.029 436.761 719.096 440.144 719.096 443.822C719.096 447.426 718.029 450.81 715.896 453.973C713.837 457.062 711.005 459.526 707.401 461.365C703.87 463.204 700.008 464.123 695.816 464.123H675.294V495.237ZM675.183 428.596L675.294 458.938H695.816C699.126 458.938 702.178 458.276 704.973 456.952C707.768 455.554 709.975 453.715 711.593 451.435C713.285 449.081 714.131 446.544 714.131 443.822C714.131 441.027 713.285 438.489 711.593 436.209C709.975 433.855 707.768 432.016 704.973 430.692C702.178 429.295 699.126 428.596 695.816 428.596H675.183ZM823.772 495.237H818.807V423.521H823.772V495.237ZM970.266 495.237L940.476 459.048H949.303C954.746 459.048 959.159 458.349 962.543 456.952C965.044 455.775 967.214 454.009 969.053 451.656C970.892 449.228 971.811 446.58 971.811 443.712C971.811 441.137 971.039 438.71 969.494 436.43C967.949 434.076 965.743 432.163 962.874 430.692C960.005 429.221 956.695 428.486 952.944 428.486H932.863V495.237H927.898V423.521H952.944C956.328 423.521 959.49 424.072 962.433 425.176C965.375 426.205 967.949 427.713 970.156 429.699C972.289 431.612 973.907 433.782 975.011 436.209C976.188 438.636 976.776 441.137 976.776 443.712C976.776 447.757 975.562 451.398 973.135 454.635C970.708 457.798 967.839 460.078 964.529 461.475C962.249 462.505 960.005 463.167 957.799 463.461C955.666 463.682 953.385 463.792 950.958 463.792L976.886 495.237H970.266ZM1124.2 495.237H1077.75V423.521H1124.2V428.596H1082.71V456.841H1115.04V461.917H1082.71V490.052H1124.2V495.237Z" fill="#68191E"/>
</svg>
