<svg width="972" height="124" viewBox="0 0 972 124" fill="none" xmlns="http://www.w3.org/2000/svg">
<g clip-path="url(#clip0_1_14)">
<path d="M83.9828 122V71.6155H21.8649V122H0.46875V1.04267H21.8649V50.2193H83.9828V1.04267H105.379V122H83.9828ZM148.517 122V1.04267H169.914V122H148.517ZM279.764 87.6626V35.2075C279.764 35.2075 280.455 22.2663 277.521 22.2663C275.106 22.2663 273.38 27.9604 268.549 40.384L235.937 122H212.988L245.427 40.384C255.09 14.1564 263.545 0.870117 280.627 0.870117C292.706 0.870117 301.161 13.1211 301.161 35.2075V87.6626C301.161 87.6626 300.298 100.604 303.231 100.604C305.302 100.604 306.855 96.2901 310.306 87.4901H310.133L328.941 40.384C338.604 14.1564 347.059 0.870117 364.141 0.870117C376.22 0.870117 384.675 13.1211 384.675 35.2075V122H363.279V35.2075C363.279 35.2075 363.969 22.2663 361.035 22.2663C358.62 22.2663 356.894 27.9604 352.063 40.384L335.153 82.8312C325.663 108.886 317.035 122 300.125 122C288.047 122 279.764 109.576 279.764 87.6626Z" fill="#450201"/>
<path d="M495.404 67.6469C500.696 70.6378 504.78 74.3189 507.655 78.6901C510.646 82.9463 512.142 87.5477 512.142 92.4941C512.142 96.7503 511.106 100.834 509.036 104.745C506.965 108.541 503.974 111.877 500.063 114.753C492.011 120.505 482.636 123.38 471.938 123.38C466.646 123.38 461.585 122.633 456.753 121.137C451.922 119.642 447.608 117.514 443.812 114.753C437.255 109.922 433.287 103.997 431.906 96.9804L439.326 92.8392C439.671 99.166 442.777 104.342 448.643 108.369C451.634 110.669 455.143 112.452 459.169 113.718C463.195 114.868 467.451 115.443 471.938 115.443C481.14 115.443 488.905 113.085 495.232 108.369C501.329 103.882 504.377 98.5909 504.377 92.4941C504.377 88.9281 503.227 85.5921 500.926 82.4862C498.74 79.3803 495.634 76.7346 491.608 74.5489C487.812 72.5934 481.025 71.0404 471.247 69.8901C470.442 69.7751 467.509 69.3149 462.447 68.5097C457.501 67.7045 453.245 66.4391 449.679 64.7136C444.042 61.9528 439.613 58.3293 436.392 53.843C433.171 49.2416 431.561 44.2952 431.561 39.0037C431.561 34.7475 432.596 30.7788 434.667 27.0978C436.853 23.3017 439.901 19.9657 443.812 17.0899C447.608 14.3291 451.922 12.201 456.753 10.7055C461.585 9.21012 466.646 8.4624 471.938 8.4624C482.636 8.4624 492.011 11.3382 500.063 17.0899C506.735 22.1513 510.646 28.018 511.797 34.6899L504.377 38.8311C504.262 35.9553 503.399 33.1945 501.789 30.5488C500.293 27.903 498.108 25.4873 495.232 23.3017C492.126 21.001 488.56 19.2755 484.534 18.1252C480.508 16.8598 476.309 16.2271 471.938 16.2271C467.566 16.2271 463.31 16.8598 459.169 18.1252C455.143 19.2755 451.634 21.001 448.643 23.3017C445.653 25.4873 443.352 27.9605 441.741 30.7213C440.131 33.3671 439.326 36.1279 439.326 39.0037C439.326 42.5697 440.649 46.1357 443.294 49.7018C445.94 53.1528 449.219 55.856 453.13 57.8116C455.545 58.9619 458.191 59.8247 461.067 60.3999C464.058 60.86 467.854 61.3776 472.455 61.9528C473.261 62.0678 475.274 62.3554 478.495 62.8155C481.715 63.2757 484.821 63.9084 487.812 64.7136C490.803 65.5188 493.334 66.4966 495.404 67.6469ZM575.155 122H567.39L567.217 9.8428H607.249C613.806 9.8428 619.845 11.2807 625.367 14.1565C631.003 17.0324 635.432 20.886 638.653 25.7174C641.989 30.5488 643.657 35.8403 643.657 41.5919C643.657 47.2286 641.989 52.5201 638.653 57.4665C635.432 62.2979 631.003 66.1515 625.367 69.0273C619.845 71.9032 613.806 73.3411 607.249 73.3411H575.155V122ZM574.982 17.7801L575.155 65.2312H607.249C612.425 65.2312 617.199 64.1959 621.571 62.1254C625.942 59.9397 629.393 57.0639 631.924 53.4979C634.569 49.8168 635.892 45.8482 635.892 41.5919C635.892 37.2207 634.569 33.252 631.924 29.686C629.393 26.0049 625.942 23.1291 621.571 21.0585C617.199 18.8729 612.425 17.7801 607.249 17.7801H574.982ZM705.555 122H697.79V9.8428H705.555V122ZM832.852 122L786.264 65.4038H800.068C808.58 65.4038 815.482 64.311 820.774 62.1254C824.685 60.2848 828.078 57.524 830.954 53.843C833.83 50.0469 835.268 45.9057 835.268 41.4194C835.268 37.3932 834.06 33.5971 831.644 30.0311C829.229 26.35 825.778 23.3592 821.292 21.0585C816.805 18.7579 811.629 17.6075 805.762 17.6075H774.358V122H766.593V9.8428H805.762C811.054 9.8428 816 10.7055 820.601 12.431C825.203 14.0415 829.229 16.3997 832.68 19.5056C836.016 22.4964 838.546 25.8899 840.272 29.686C842.113 33.4821 843.033 37.3932 843.033 41.4194C843.033 47.7462 841.135 53.4403 837.339 58.5018C833.543 63.4482 829.056 67.0143 823.88 69.1999C820.314 70.8104 816.805 71.8457 813.354 72.3058C810.018 72.6509 806.452 72.8234 802.656 72.8234L843.205 122H832.852ZM971.783 122H899.14V9.8428H971.783V17.7801H906.904V61.9528H957.461V69.8901H906.904V113.89H971.783V122Z" fill="#141414"/>
</g>
<defs>
<clipPath id="clip0_1_14">
<rect width="972" height="124" fill="white"/>
</clipPath>
</defs>
</svg>
