<svg width="972" height="124" viewBox="0 0 972 124" fill="none" xmlns="http://www.w3.org/2000/svg">
<g clip-path="url(#clip0_1_20)">
<path d="M83.9828 122V71.6155H21.8649V122H0.46875V1.04267H21.8649V50.2193H83.9828V1.04267H105.379V122H83.9828ZM148.517 122V1.04267H169.914V122H148.517ZM279.764 87.6626V35.2075C279.764 35.2075 280.455 22.2663 277.521 22.2663C275.106 22.2663 273.38 27.9604 268.549 40.384L235.937 122H212.988L245.427 40.384C255.09 14.1564 263.545 0.870117 280.627 0.870117C292.706 0.870117 301.161 13.1211 301.161 35.2075V87.6626C301.161 87.6626 300.298 100.604 303.231 100.604C305.302 100.604 306.855 96.2901 310.306 87.4901H310.133L328.941 40.384C338.604 14.1564 347.059 0.870117 364.141 0.870117C376.22 0.870117 384.675 13.1211 384.675 35.2075V122H363.279V35.2075C363.279 35.2075 363.969 22.2663 361.035 22.2663C358.62 22.2663 356.894 27.9604 352.063 40.384L335.153 82.8312C325.663 108.886 317.035 122 300.125 122C288.047 122 279.764 109.576 279.764 87.6626ZM495.404 67.6468C500.696 70.6377 504.78 74.3188 507.655 78.69C510.646 82.9462 512.142 87.5476 512.142 92.494C512.142 96.7502 511.106 100.834 509.036 104.745C506.965 108.541 503.974 111.877 500.063 114.753C492.011 120.505 482.636 123.38 471.938 123.38C466.646 123.38 461.585 122.633 456.753 121.137C451.922 119.642 447.608 117.514 443.812 114.753C437.255 109.922 433.287 103.997 431.906 96.9803L439.326 92.8391C439.671 99.1659 442.777 104.342 448.643 108.369C451.634 110.669 455.143 112.452 459.169 113.718C463.195 114.868 467.451 115.443 471.938 115.443C481.14 115.443 488.905 113.085 495.232 108.369C501.329 103.882 504.377 98.5908 504.377 92.494C504.377 88.928 503.227 85.592 500.926 82.4861C498.74 79.3802 495.634 76.7345 491.608 74.5488C487.812 72.5933 481.025 71.0403 471.247 69.89C470.442 69.775 467.509 69.3148 462.447 68.5096C457.501 67.7044 453.245 66.439 449.679 64.7135C444.042 61.9527 439.613 58.3292 436.392 53.8429C433.171 49.2415 431.561 44.2951 431.561 39.0036C431.561 34.7474 432.596 30.7787 434.667 27.0977C436.853 23.3016 439.901 19.9656 443.812 17.0898C447.608 14.329 451.922 12.2009 456.753 10.7054C461.585 9.21002 466.646 8.4623 471.938 8.4623C482.636 8.4623 492.011 11.3381 500.063 17.0898C506.735 22.1512 510.646 28.0179 511.797 34.6898L504.377 38.831C504.262 35.9552 503.399 33.1944 501.789 30.5487C500.293 27.9029 498.108 25.4872 495.232 23.3016C492.126 21.0009 488.56 19.2754 484.534 18.1251C480.508 16.8597 476.309 16.227 471.938 16.227C467.566 16.227 463.31 16.8597 459.169 18.1251C455.143 19.2754 451.634 21.0009 448.643 23.3016C445.653 25.4872 443.352 27.9604 441.741 30.7212C440.131 33.367 439.326 36.1278 439.326 39.0036C439.326 42.5696 440.649 46.1356 443.294 49.7017C445.94 53.1527 449.219 55.8559 453.13 57.8115C455.545 58.9618 458.191 59.8246 461.067 60.3998C464.058 60.8599 467.854 61.3775 472.455 61.9527C473.261 62.0677 475.274 62.3553 478.495 62.8154C481.715 63.2756 484.821 63.9083 487.812 64.7135C490.803 65.5187 493.334 66.4965 495.404 67.6468ZM575.155 122H567.39L567.217 9.8427H607.249C613.806 9.8427 619.845 11.2806 625.367 14.1564C631.003 17.0323 635.432 20.8859 638.653 25.7173C641.989 30.5487 643.657 35.8402 643.657 41.5918C643.657 47.2285 641.989 52.52 638.653 57.4664C635.432 62.2978 631.003 66.1514 625.367 69.0272C619.845 71.9031 613.806 73.341 607.249 73.341H575.155V122ZM574.982 17.78L575.155 65.2311H607.249C612.425 65.2311 617.199 64.1958 621.571 62.1253C625.942 59.9396 629.393 57.0638 631.924 53.4978C634.569 49.8167 635.892 45.8481 635.892 41.5918C635.892 37.2206 634.569 33.2519 631.924 29.6859C629.393 26.0048 625.942 23.129 621.571 21.0584C617.199 18.8728 612.425 17.78 607.249 17.78H574.982ZM705.555 122H697.79V9.8427H705.555V122ZM832.852 122L786.264 65.4037H800.068C808.58 65.4037 815.482 64.3109 820.774 62.1253C824.685 60.2847 828.078 57.5239 830.954 53.8429C833.83 50.0468 835.268 45.9056 835.268 41.4193C835.268 37.3931 834.06 33.597 831.644 30.031C829.229 26.3499 825.778 23.3591 821.292 21.0584C816.805 18.7578 811.629 17.6074 805.762 17.6074H774.358V122H766.593V9.8427H805.762C811.054 9.8427 816 10.7054 820.601 12.4309C825.203 14.0414 829.229 16.3996 832.68 19.5055C836.016 22.4963 838.546 25.8898 840.272 29.6859C842.113 33.482 843.033 37.3931 843.033 41.4193C843.033 47.7461 841.135 53.4402 837.339 58.5017C833.543 63.4481 829.056 67.0142 823.88 69.1998C820.314 70.8103 816.805 71.8456 813.354 72.3057C810.018 72.6508 806.452 72.8233 802.656 72.8233L843.205 122H832.852ZM971.783 122H899.14V9.8427H971.783V17.78H906.904V61.9527H957.461V69.89H906.904V113.89H971.783V122Z" fill="#FFF3E3"/>
</g>
<defs>
<clipPath id="clip0_1_20">
<rect width="972" height="124" fill="white"/>
</clipPath>
</defs>
</svg>
